<svg width="18" height="18" viewBox="0 0 18 18" fill="none" xmlns="http://www.w3.org/2000/svg">
<path d="M11.025 4.72505C10.8876 4.86524 10.8106 5.05373 10.8106 5.25005C10.8106 5.44636 10.8876 5.63485 11.025 5.77505L12.225 6.97505C12.3652 7.11247 12.5537 7.18944 12.75 7.18944C12.9463 7.18944 13.1348 7.11247 13.275 6.97505L16.1025 4.14755C16.4796 4.98094 16.5938 5.90947 16.4299 6.80941C16.2659 7.70934 15.8315 8.53793 15.1847 9.18476C14.5379 9.83158 13.7093 10.2659 12.8094 10.4299C11.9094 10.5939 10.9809 10.4797 10.1475 10.1025L4.96501 15.285C4.66665 15.5834 4.26197 15.751 3.84001 15.751C3.41806 15.751 3.01338 15.5834 2.71501 15.285C2.41665 14.9867 2.24902 14.582 2.24902 14.16C2.24902 13.7381 2.41665 13.3334 2.71501 13.035L7.89751 7.85255C7.52039 7.01915 7.4062 6.09062 7.57017 5.19069C7.73414 4.29075 8.16848 3.46216 8.8153 2.81534C9.46213 2.16851 10.2907 1.73417 11.1907 1.5702C12.0906 1.40623 13.0191 1.52042 13.8525 1.89755L11.0325 4.71755L11.025 4.72505Z" stroke="#00664F" stroke-width="1.6" stroke-linecap="round" stroke-linejoin="round"/>
</svg>
